<?xml version="1.0" standalone="no"?>
<!DOCTYPE svg PUBLIC "-//W3C//DTD SVG 20010904//EN"
 "http://www.w3.org/TR/2001/REC-SVG-20010904/DTD/svg10.dtd">
<svg version="1.0" xmlns="http://www.w3.org/2000/svg"
 width="120.000000pt" height="120.000000pt" viewBox="0 0 120.000000 120.000000"
 preserveAspectRatio="xMidYMid meet">
<metadata>
Created by potrace 1.11, written by Peter Selinger 2001-2013
</metadata>
<g transform="translate(0.000000,120.000000) scale(0.100000,-0.100000)"
fill="#000000" stroke="none">
<path d="M566 955 c-122 -131 -125 -149 -23 -153 l67 -3 0 -224 0 -225 -73 0
-73 0 -53 -54 c-29 -30 -50 -59 -47 -65 10 -16 348 -15 364 1 9 9 12 87 12
290 l0 278 63 0 c62 0 87 11 87 37 0 21 -190 223 -210 223 -10 0 -61 -47 -114
-105z"/>
</g>
</svg>
